<?xml version="1.0" encoding="utf-8"?><svg width="172" height="117" fill="none" xmlns="http://www.w3.org/2000/svg" viewBox="0 0 172 117"><path d="M40.827 82.776L27 90.98c48.372 25.592 98.665 10.663 117.766 0l-36.092-19.452c.117.547 1.758 4.78 7.383 17.343-36.092 8.905-65.191-.352-75.23-6.094zM40.827 34.333L27 26.131c48.372-25.592 98.665-10.664 117.766 0l-36.092 19.452c.117-.547 1.758-4.781 7.383-17.343-36.092-8.906-65.191.352-75.23 6.093z" fill="#fff"/><path d="M33.738 54.188c1.968-27.928 51.618-24.884 69.429-22.384L96.957 42.7c-1.329-.39-4.867-1.478-8.086-1.757-15.755-1.367-46.52 4.687-33.748 22.38C65.341 77.48 87.27 76.255 96.956 73.872c.157.703 1.313 4.055 4.688 11.835-32.717 7.218-56.422-1.52-64.507-12.886-3.398-5.742-3.919-11.254-3.399-18.632z" fill="#fff"/><path d="M80.317 46.334h21.327v12.245L145 34.733V47.39l-22.733 11.19L145 71.528v11.249l-43.356-24.198v12.245H80.317v-24.49z" fill="#fff"/></svg>