<?xml version="1.0" encoding="utf-8"?><svg width="172" height="117" fill="none" xmlns="http://www.w3.org/2000/svg" viewBox="0 0 172 117"><path d="M85.5 38.5L66 72l19.5-17.5L105.802 72 85.5 38.5z" fill="#fff"/><path d="M86 13c-11.167 4.667-36 18.1-46 34.5 4 24 7 35 17.5 52 22 5 37 6 55 0C121 91 129 75 131 47.5c-5.5-9.333-22.2-29.3-45-34.5zm0 0c9.333 11.667 28.7 38.3 31.5 51.5M49 37c4.145-1.209 11.915-2.856 21.5-3.774m0 0c8.914-.853 19.4-1.075 30 .274m-30-.274C66.03 40.481 58.55 53.895 53.687 66m0 0c-2.57 6.4-4.41 12.435-4.687 17m4.688-17c7.06 7.356 21.19 21.053 33.22 30m0 0c4.053 3.014 7.867 5.488 11.092 7m-11.091-7C99.272 85 125.2 59.8 130 47" stroke="#fff" stroke-width="4"/></svg>