<?xml version="1.0" encoding="utf-8"?><svg width="172" height="117" fill="none" xmlns="http://www.w3.org/2000/svg" viewBox="0 0 172 117"><path d="M9 45.78V32.652h37.416V21h19.2l18.38 28.39L103.526 21h19.365v11.652h6.072v15.59l14.769-15.59h18.873l-18.873 21.662 18.873 22.154-18.873.492-14.769-15.097V76.96h-6.072v8.041h-20.513V61.862l-18.38 18.38-18.38-18.38v23.14h-19.2v-8.534H9V63.011h10.01v3.282H41v-6.728H26.068V49.39h14.934v-6.4H19.01v2.79H9z" fill="#fff"/><path d="M85.435 91.885v1.95h-1.132v1.813h-2.099v-1.813h-4.997v-1.95l3.518-6.901h2.234l-3.502 6.9h2.747v-2.528h2.099v2.529h1.132zM92.378 90.103c.977.589 1.465 1.447 1.465 2.574 0 .985-.342 1.762-1.027 2.33-.674.57-1.595.854-2.763.854-1.177 0-2.103-.284-2.778-.853-.674-.569-1.011-1.346-1.011-2.33 0-1.128.483-1.986 1.45-2.575-.736-.539-1.103-1.275-1.103-2.21 0-.985.327-1.751.981-2.3.665-.548 1.485-.823 2.461-.823.977 0 1.792.275 2.446.823.654.549.982 1.315.982 2.3 0 .945-.368 1.681-1.103 2.21zm-1.343-3.017c-.252-.223-.58-.335-.982-.335s-.73.112-.981.335c-.252.224-.377.528-.377.914s.125.696.377.93c.252.223.579.335.981.335.403 0 .73-.112.982-.335.251-.234.377-.544.377-.93s-.126-.69-.377-.914zM88.8 93.5c.322.254.74.38 1.253.38.514 0 .926-.126 1.238-.38.322-.264.483-.63.483-1.097 0-.457-.16-.813-.483-1.067-.312-.264-.724-.396-1.238-.396-.513 0-.93.132-1.253.397-.312.253-.468.609-.468 1.066 0 .467.156.833.468 1.097z" fill="#fff"/></svg>