<?xml version="1.0" encoding="utf-8"?><svg width="172" height="117" fill="none" xmlns="http://www.w3.org/2000/svg" viewBox="0 0 172 117"><path fill-rule="evenodd" clip-rule="evenodd" d="M73.274 99.365l-30.956-3.384C47.135 84.25 58.69 60.38 66.395 58.755c3.36-.708 7.809-1.334 12.382-1.102-10.548 10.295-24.076 33.996 6.191 46.45 14.308 1.624 42.65.677 55.032 0l-23.389-41.287 13.071 33.165c-15.134 1.354-46.777 1.49-52.28-8.799-.832-1.555-1.998-5.36-1.874-4.857l-.332-1.48c9.86 1.579 33.436 3.36 40.04-16.675 2.063-29.104-25.453-53.47-30.268-52.116-4.525 1.272-18.16 31.827-20.36 36.756-.141.317-.235.528-.277.618C50.795 56.696 37.411 85.77 32 100.72l41.274-1.354zM64.33 49.43c1.377-.74 2.756-1.253 4.128-1.503 32.331-3.384 32.331 18.951 30.955 25.043-3.135-11.458-12.103-14.882-20.637-15.316-2.162 4.366-5.174 13.751-3.695 22.563-1.808 2.109 30.39.472 27.772-18.077-2.752-19.492-12.153-34.067-17.886-40.61l-20.637 27.9z" fill="#fff"/></svg>