<?xml version="1.0" encoding="utf-8"?><svg width="818" height="422" fill="none" xmlns="http://www.w3.org/2000/svg" viewBox="0 0 818 422"><circle class="edelivery__circle" cx="117.5" cy="218.5" r="10.5" fill="#926744"/><circle class="edelivery__circle edelivery__circle--delay" cx="117.5" cy="218.5" r="10.5" fill="#926744"/><circle class="edelivery__circle" cx="442" cy="266" r="10" fill="#926744"/><circle class="edelivery__circle edelivery__circle--delay" cx="442" cy="266" r="10" fill="#926744"/><circle class="edelivery__circle" cx="666.5" cy="158.5" r="10.5" fill="#926744"/><circle class="edelivery__circle edelivery__circle--delay" cx="666.5" cy="158.5" r="10.5" fill="#926744"/><path d="M444 268s6.739-45.985 29.273-55.288c20.168-8.327 34.015 19.525 54.528 12.094 25.29-9.161 9.336-48.217 33.291-60.471 23.508-12.025 41.092 11.623 67.155 7.487C644.841 169.189 669 158 669 158M120 218.412s34.689-24.926 58.029-19.689c19.497 4.375 20.735 27.412 40.218 31.849 23.255 5.296 34.611-23.61 58.029-19.109 26.039 5.004 23.624 40.718 49.411 46.904 29.227 7.012 43.012-36.393 71.818-27.795C416.292 236.179 436 263 436 263" stroke="#926744" stroke-width="2" stroke-dasharray="4 3"/></svg>