<?xml version="1.0" encoding="utf-8"?><svg width="37" height="37" fill="none" xmlns="http://www.w3.org/2000/svg" viewBox="0 0 37 37"><g clip-path="url(#hclip0_93_169)"><path fill-rule="evenodd" clip-rule="evenodd" d="M26.848 22.172c-.46-.23-2.712-1.336-3.131-1.49-.42-.153-.725-.229-1.031.23-.306.457-1.183 1.49-1.45 1.795-.268.307-.535.344-.992.116-.458-.231-1.935-.714-3.685-2.274-1.361-1.215-2.282-2.715-2.548-3.174-.267-.458-.03-.706.2-.935.207-.205.458-.535.688-.801.23-.268.305-.46.458-.766.154-.306.077-.572-.039-.802-.114-.23-1.03-2.485-1.412-3.403-.372-.892-.75-.77-1.03-.786a19.827 19.827 0 00-.879-.015c-.305 0-.801.114-1.22.573-.422.458-1.604 1.567-1.604 3.822 0 2.254 1.64 4.432 1.87 4.74.23.304 3.23 4.932 7.826 6.917 1.094.471 1.947.753 2.611.963 1.098.35 2.097.3 2.886.182.879-.131 2.71-1.108 3.093-2.178.38-1.07.38-1.988.266-2.179-.114-.19-.419-.305-.878-.535h.001zM18.49 33.585h-.006c-2.73 0-5.41-.733-7.758-2.124l-.555-.33-5.769 1.514 1.54-5.624-.362-.577a15.203 15.203 0 01-2.33-8.109c.004-8.402 6.84-15.238 15.246-15.238a15.13 15.13 0 0110.773 4.468 15.146 15.146 0 014.459 10.78c-.003 8.403-6.839 15.24-15.238 15.24zM31.458 5.377A18.214 18.214 0 0018.488 0C8.384 0 .158 8.225.154 18.334a18.29 18.29 0 002.447 9.165L0 37l9.719-2.55a18.317 18.317 0 008.763 2.232h.007c10.104 0 18.33-8.224 18.334-18.335a18.223 18.223 0 00-5.365-12.97z" fill="#686868"/></g><defs><clipPath id="hclip0_93_169"><path fill="#fff" d="M0 0h37v37H0z"/></clipPath></defs></svg>