<?xml version="1.0" encoding="utf-8"?><svg width="194" height="188" fill="none" xmlns="http://www.w3.org/2000/svg" viewBox="0 0 194 188"><path class="iloader__anim iloader__anim--l" d="M115.647 112.636v-13.74L97.8 94.163a40.278 40.278 0 00-3.219-7.738l9.283-15.974-9.719-9.718-15.988 9.29a40.489 40.489 0 00-7.715-3.196l-4.74-17.877H51.952l-4.74 17.877a40.49 40.49 0 00-7.716 3.196l-15.988-9.29-9.718 9.718 9.274 15.974a40.773 40.773 0 00-3.219 7.738L2 98.896v13.74l17.816 4.725a40.179 40.179 0 003.219 7.784l-9.252 15.935 9.718 9.719 15.92-9.245a40.266 40.266 0 007.807 3.242l4.718 17.793h13.74l4.718-17.793a40.264 40.264 0 007.806-3.242l15.92 9.245 9.718-9.719-9.252-15.935a40.166 40.166 0 003.22-7.784l17.831-4.725z" stroke="#686868" stroke-width="4" stroke-miterlimit="10" stroke-linecap="round" stroke-linejoin="round"/><path d="M58.827 123.837c9.957 0 18.03-8.072 18.03-18.03 0-9.957-8.073-18.03-18.03-18.03-9.958 0-18.03 8.073-18.03 18.03 0 9.958 8.072 18.03 18.03 18.03z" stroke="#686868" stroke-width="4" stroke-miterlimit="10" stroke-linecap="round" stroke-linejoin="round"/><path d="M58.827 133.113c15.08 0 27.305-12.225 27.305-27.305S73.907 78.503 58.827 78.503s-27.304 12.225-27.304 27.305 12.224 27.305 27.304 27.305z" stroke="#686868" stroke-width="4" stroke-miterlimit="10" stroke-linecap="round" stroke-linejoin="round"/><path class="iloader__anim iloader__anim--s" d="M171.865 160.113l3.716-7.418-8.356-7.381a24.33 24.33 0 00.354-5.048l9.331-6.114-2.619-7.875-11.145.693a24.412 24.412 0 00-3.301-3.812l2.274-10.934-7.422-3.717-7.394 8.37a24.507 24.507 0 00-5.029-.361l-6.121-9.338-7.874 2.619.688 11.132a24.624 24.624 0 00-3.83 3.307l-10.915-2.27-3.715 7.419 8.341 7.368a24.227 24.227 0 00-.367 5.073l-9.304 6.102 2.619 7.875 11.095-.687a24.363 24.363 0 003.339 3.861l-2.264 10.882 7.418 3.716 7.358-8.331a24.35 24.35 0 005.092.36l6.095 9.296 7.875-2.619-.686-11.105a24.264 24.264 0 003.842-3.333l10.905 2.27z" stroke="#686868" stroke-width="4" stroke-miterlimit="10" stroke-linecap="round" stroke-linejoin="round"/><path d="M138.159 150.798c5.376 2.693 11.917.517 14.61-4.859 2.692-5.376.517-11.917-4.86-14.61-5.376-2.692-11.917-.517-14.609 4.86-2.693 5.376-.517 11.917 4.859 14.609z" stroke="#686868" stroke-width="4" stroke-miterlimit="10" stroke-linecap="round" stroke-linejoin="round"/><path d="M135.652 155.805c8.142 4.077 18.048.782 22.125-7.359 4.078-8.142.783-18.048-7.359-22.126-8.142-4.077-18.048-.782-22.125 7.36-4.078 8.141-.783 18.047 7.359 22.125z" stroke="#686868" stroke-width="4" stroke-miterlimit="10" stroke-linecap="round" stroke-linejoin="round"/><path class="iloader__anim iloader__anim--m" d="M191.49 54.385V43.083l-14.68-3.893a33.174 33.174 0 00-2.648-6.365l7.636-13.139-7.994-7.994-13.152 7.642a33.303 33.303 0 00-6.346-2.63L150.407 2h-11.309l-3.899 14.705a33.276 33.276 0 00-6.346 2.629l-13.152-7.642-7.994 7.994 7.629 13.139a33.56 33.56 0 00-2.648 6.365l-14.68 3.893v11.302l14.655 3.887a33.133 33.133 0 002.648 6.403l-7.61 13.107 7.994 7.994 13.095-7.604c2.025 1.1 4.17 2 6.421 2.667l3.881 14.636h11.302l3.881-14.636a33.145 33.145 0 006.421-2.667l13.095 7.604 7.994-7.994-7.61-13.107a33.133 33.133 0 002.648-6.403l14.667-3.887z" stroke="#686868" stroke-width="4" stroke-miterlimit="10" stroke-linecap="round" stroke-linejoin="round"/><path d="M144.753 63.599c8.19 0 14.83-6.64 14.83-14.83 0-8.192-6.64-14.831-14.83-14.831-8.191 0-14.831 6.64-14.831 14.83 0 8.19 6.64 14.83 14.831 14.83z" stroke="#686868" stroke-width="4" stroke-miterlimit="10" stroke-linecap="round" stroke-linejoin="round"/><path d="M144.753 71.23c12.404 0 22.46-10.055 22.46-22.46 0-12.404-10.056-22.46-22.46-22.46-12.404 0-22.46 10.056-22.46 22.46 0 12.405 10.056 22.46 22.46 22.46z" stroke="#686868" stroke-width="4" stroke-miterlimit="10" stroke-linecap="round" stroke-linejoin="round"/></svg>